<?xml version="1.0" encoding="UTF-8" standalone="no"?>
<!DOCTYPE svg PUBLIC "-//W3C//DTD SVG 1.1//EN" "http://www.w3.org/Graphics/SVG/1.1/DTD/svg11.dtd">
<svg width="100%" height="100%" viewBox="0 0 245 245" version="1.1" xmlns="http://www.w3.org/2000/svg" xmlns:xlink="http://www.w3.org/1999/xlink" xml:space="preserve" xmlns:serif="http://www.serif.com/" style="fill-rule:evenodd;clip-rule:evenodd;stroke-linejoin:round;stroke-miterlimit:2;">
    <path d="M122.469,229.805L226.188,132.531L226.533,132.186C252.268,104.693 250.84,61.388 223.345,35.648L221.12,33.567C208.421,21.679 191.85,15.133 174.462,15.133C155.63,15.133 137.45,23.015 124.651,36.688L122.468,38.96L120.352,36.757C107.487,23.014 89.307,15.132 70.475,15.132C53.086,15.132 36.516,21.678 23.819,33.564L21.59,35.65C-5.901,61.386 -7.331,104.692 18.404,132.186L122.469,229.805ZM31.839,46.602L34.068,44.518C43.978,35.241 56.908,30.133 70.476,30.133C85.39,30.133 99.214,36.126 109.468,47.079L122.469,60.614L135.536,47.009C145.724,36.126 159.548,30.133 174.462,30.133C188.029,30.133 200.959,35.241 210.872,44.52L213.096,46.6C234.492,66.631 235.659,100.299 215.742,121.762L122.469,209.24L29.195,121.762C9.28,100.298 10.446,66.63 31.839,46.602Z" style="fill-rule:nonzero;"/>
</svg>
