<?xml version="1.0" encoding="UTF-8" standalone="no"?>
<!DOCTYPE svg PUBLIC "-//W3C//DTD SVG 1.1//EN" "http://www.w3.org/Graphics/SVG/1.1/DTD/svg11.dtd">
<svg width="100%" height="100%" viewBox="0 0 235 235" version="1.1" xmlns="http://www.w3.org/2000/svg" xmlns:xlink="http://www.w3.org/1999/xlink" xml:space="preserve" xmlns:serif="http://www.serif.com/" style="fill-rule:evenodd;clip-rule:evenodd;stroke-linejoin:round;stroke-miterlimit:2;">
    <path d="M205.978,77.069L224.269,58.778L175.262,9.771L156.97,28.062C155.226,27.278 153.458,26.544 151.673,25.866L151.673,0L82.366,0L82.366,25.865C80.581,26.544 78.814,27.277 77.069,28.061L58.778,9.771L9.77,58.777L28.062,77.068C27.277,78.813 26.544,80.581 25.865,82.366L0,82.366L0,151.673L25.865,151.673C26.544,153.458 27.277,155.226 28.061,156.97L9.771,175.261L58.779,224.269L77.07,205.978C78.814,206.762 80.582,207.495 82.367,208.174L82.367,234.039L151.674,234.039L151.674,208.174C153.459,207.495 155.227,206.762 156.971,205.978L175.262,224.269L224.27,175.261L205.979,156.97C206.763,155.226 207.496,153.458 208.175,151.673L234.04,151.673L234.04,82.366L208.175,82.366C207.495,80.581 206.762,78.813 205.978,77.069ZM219.039,136.673L197.352,136.673L195.696,141.912C194.271,146.42 192.44,150.837 190.252,155.04L187.714,159.918L203.057,175.261L175.262,203.056L159.919,187.713L155.041,190.251C150.837,192.44 146.42,194.272 141.914,195.695L136.674,197.351L136.674,219.039L97.366,219.039L97.366,197.351L92.126,195.695C87.62,194.271 83.204,192.439 78.998,190.251L74.12,187.713L58.778,203.056L30.983,175.261L46.326,159.918L43.787,155.04C41.599,150.837 39.768,146.42 38.343,141.912L36.687,136.673L15,136.673L15,97.366L36.688,97.366L38.344,92.126C39.767,87.622 41.599,83.205 43.789,78.997L46.327,74.119L30.984,58.777L58.778,30.983L74.12,46.325L78.997,43.788C83.208,41.597 87.625,39.767 92.126,38.344L97.366,36.688L97.366,15L136.673,15L136.673,36.688L141.913,38.344C146.414,39.767 150.831,41.598 155.043,43.789L159.92,46.325L175.262,30.983L203.056,58.778L187.713,74.121L190.251,78.999C192.439,83.203 194.272,87.62 195.695,92.126L197.351,97.366L219.038,97.366L219.038,136.673L219.039,136.673ZM117.02,71.213C91.762,71.213 71.213,91.762 71.213,117.02C71.213,142.278 91.762,162.827 117.02,162.827C142.278,162.827 162.827,142.278 162.827,117.02C162.827,91.762 142.277,71.213 117.02,71.213ZM117.02,147.826C100.033,147.826 86.213,134.007 86.213,117.019C86.213,100.031 100.033,86.212 117.02,86.212C134.007,86.212 147.827,100.031 147.827,117.019C147.827,134.007 134.007,147.826 117.02,147.826Z" style="fill-rule:nonzero;"/>
</svg>
