<?xml version="1.0" encoding="UTF-8" standalone="no"?>
<!DOCTYPE svg PUBLIC "-//W3C//DTD SVG 1.1//EN" "http://www.w3.org/Graphics/SVG/1.1/DTD/svg11.dtd">
<svg width="100%" height="100%" viewBox="0 0 230 230" version="1.1" xmlns="http://www.w3.org/2000/svg" xmlns:xlink="http://www.w3.org/1999/xlink" xml:space="preserve" xmlns:serif="http://www.serif.com/" style="fill-rule:evenodd;clip-rule:evenodd;stroke-linejoin:round;stroke-miterlimit:2;">
    <path d="M90.836,196.324L75.836,196.324L75.836,78.089L90.836,78.089L90.836,196.324ZM153.871,78.089L138.871,78.089L138.871,196.323L153.871,196.323L153.871,78.089ZM11.271,12.941L66.766,12.941L66.766,0L162.942,0L162.942,12.941L218.437,12.941L218.437,62.853L208.148,62.853L197.172,229.707L32.537,229.707L21.56,62.854L11.271,62.854L11.271,12.941ZM193.115,62.854L36.592,62.854L46.582,214.708L183.125,214.708L193.115,62.854ZM26.271,47.854L203.437,47.854L203.437,27.941L162.942,27.941L162.942,33.383L147.942,33.383L147.942,15L81.766,15L81.766,33.383L66.766,33.383L66.766,27.941L26.271,27.941L26.271,47.854Z" style="fill-rule:nonzero;"/>
</svg>
